<mxfile host="app.diagrams.net" modified="2022-03-30T02:25:44.468Z" agent="5.0 (X11; Linux x86_64) AppleWebKit/537.36 (KHTML, like Gecko) Chrome/99.0.4844.84 Safari/537.36" etag="YZJXBJrWUSr_gpLutAt8" version="17.2.5" type="github">
  <diagram id="Gw1WCnoR5nNzKmPmtfD9" name="第 1 页">
    <mxGraphModel dx="1441" dy="748" grid="1" gridSize="10" guides="1" tooltips="1" connect="1" arrows="1" fold="1" page="1" pageScale="1" pageWidth="827" pageHeight="1169" math="0" shadow="0">
      <root>
        <mxCell id="0" />
        <mxCell id="1" parent="0" />
      </root>
    </mxGraphModel>
  </diagram>
</mxfile>
